/* XPM */
static char *_542644671301[] = {
/* columns rows colors chars-per-pixel */
"64 64 94 2 ",
"   c #2D1A1A",
".  c #341E1E",
"X  c #262524",
"o  c #3A2121",
"O  c #302F2D",
"+  c #343331",
"@  c #3E3D3B",
"#  c #441D1D",
"$  c #481F1F",
"%  c #45201D",
"&  c #48221F",
"*  c #4B2120",
"=  c #542323",
"-  c #5C2424",
";  c #5F2925",
":  c #5E2828",
">  c #403F3C",
",  c #622726",
"<  c #682723",
"1  c #622A26",
"2  c #6D2926",
"3  c #642928",
"4  c #6C2B2B",
"5  c #742C25",
"6  c #7B2C24",
"7  c #732E2C",
"8  c #782F2A",
"9  c #6E312C",
"0  c #74322D",
"q  c #7C322C",
"w  c #7E392F",
"e  c #763230",
"r  c #793332",
"t  c #41403D",
"y  c #474643",
"u  c #504E4C",
"i  c #53514E",
"p  c #6C6966",
"a  c #6E6D69",
"s  c #706E6B",
"d  c #74736F",
"f  c #802F27",
"g  c #83342C",
"h  c #8A362C",
"j  c #85382F",
"k  c #8E392F",
"l  c #9A3625",
"z  c #9D3927",
"x  c #953C2D",
"c  c #993E2E",
"v  c #833631",
"b  c #843B31",
"n  c #8A3A32",
"m  c #913C31",
"M  c #9C3F30",
"N  c #A23E2A",
"B  c #99402F",
"V  c #9C4332",
"C  c #A5432E",
"Z  c #A8452F",
"A  c #A64A2E",
"S  c #A54631",
"D  c #A94731",
"F  c #A74832",
"G  c #AB4932",
"H  c #AB5132",
"J  c #C3563F",
"K  c #C35E3F",
"L  c #846B66",
"P  c #856E69",
"I  c #87726C",
"U  c #89746E",
"Y  c #8B7771",
"T  c #8E7C76",
"R  c #8F7F79",
"E  c #91827C",
"W  c #938680",
"Q  c #958B85",
"!  c #978E88",
"~  c #97908A",
"^  c #99948D",
"/  c #9B9790",
"(  c #9B9891",
")  c #B49286",
"_  c #B89E91",
"`  c #B9A38F",
"'  c #B9A495",
"]  c #BAA799",
"[  c #BBAC9D",
"{  c #BDB09F",
"}  c #BEB3A4",
"|  c #BEB7A9",
" . c #BFB9AA",
".. c #C0BBAD",
/* pixels */
"( 1 : r r r r r r r r r r v r v v r v r r r r r r r r r r r ........r r r r r r r r r r r r r r r r r r r r r r r v r n n n ..( ",
"1 : 3 G G G G G G G M m m m m r r r r r r v v r r m m m r m M ....r J J J J r r r r r r r r r r r r r r r G r v J n n n r r e ( ",
": G G G G G G G G m G G m F F F F G G G G G G G m m m F m m m ..r J G G G G G G J G G G G G G G G G G r G G F F V V n r r r : ..",
": G G G G G G G G G G G G m G G G G F G G G G G G m G G G m m ..r J G G J G G G G G G F J S S S G S G G G G G n S S n n r r : ..",
": G D D D G m D D G G G m G m m m m G G G G F F G F F F m m m ..r G G G G G G G G G G G G G G G S S v G G G F G G G v n n r r ..",
": G D D D m n m G D m G m m m m F m m F N F F F F F F F m r m ..r G G G G n D F G G G G G N G M G G n F G v G F S G F G n r r ..",
": S n k m m n x k m m m m m m m m m m m m G N F S M r m m r m ..r G G n G n n D G v n G m G n v v S v n n n v n v v v n v S v ..",
"- S n k C k k k k k k k k k r n m n m m m m m k m m r r r r r ..r G S S G v G n v n G n n n n n n n n n v n n v n v v v v v r | ",
"- n h k k h 7 k k e k k n e 7 e e n k k N m k r n m e e e e e  .r S v G v v N v v n v n n n v v r r r v v v v v n v v v v v v Q ",
"= h h h h n 7 7 7 7 7 n n k n 7 n e k n e r 7 n e e 7 e e e e  .r M v v v v n n n v v v N v v r 7 7 v 7 f v v v v r N f f f v W ",
"= 7 h h h h n h 7 7 7 7 h h h h e 4 e 4 7 e 7 e 7 7 e - 7 e e  .v M v r v 7 v v v v v v v g e 4 7 4 4 4 4 4 4 4 e r r 4 8 r * W ",
"= 4 g 7 4 h 4 7 4 7 4 7 7 h 7 7 7 7 4 e 7 7 7 7 7 7 7 = - 7 = | 7 v v 7 7 4 f 4 4 7 f g 8 r 4 4 4 4 4 4 = 4 4 4 4 , 7 , 7 , Y Q ",
"= 4 7 4 v v 4 7 7 4 4 4 h 4 7 4 = = = 4 4 7 4 4 7 7 4 7 4 = - | 4 r f 4 r 4 4 4 4 4 4 8 8 4 4 , 4 , * $ : $ * : , , , , , < , W ",
"* 4 4 h 4 4 4 4 4 4 = = = * = = = * = * = 4 4 4 4 7 4 7 7 - :  .7 7 7 e 4 7 4 4 , , , , , , , $ , $ $ $ : $ $ - - - - - , , $ ! ",
"_ R 4 4 9 = = = : = = = = = = W @ @ > > : : : o o : - = = = W s R 7 7 7 4 4 4 , , , , 4 , 4 , 4 = . . = = = . = 4 4 4 4 , = - T ",
"( ( ( ( ( (  . . . . ..... . .( ( ( ( ( ( ( (  . ...( ( / / d d d ( ........~ / ( ( ( ........................ . . .....+ + / / ",
"r r r r r , + y ( r r r r r r r r r v r r r r r r r r r r G G G r r r n r r r ( r r G G r r r r S D G G r r r r r r r r G G r r ",
"G G G r r r r + ( r r J J J G G G G G G D D D D G G G G G G G G G G D m G n r ( r G G G G G r G D D G G G G r G G G G J G G G G ",
"G G G G G r r r ( r G G G J G G G G G G G G G G G J G G G G G G G G G J G m r ( r G G J G G v G G G G G G G G G G G G J J G G G ",
"G G G G G N r r ( r G J J G G G J J G G k m G G G G G G G G G G G G G G J D n d r G G J J G G G G m G G G G G G G G G G G G G G ",
"N m m m G G r r ..8 D D D n D D G D G n n G G G G n n n n n n n n n G G D n r d r G G G G G J G G G D m m G J N G G N J G G G G ",
"m m k m m G N r ..Z D D n n D D D n n n n n v n n k n n n n n n n n n n n n n d r G G G G G G G G G D D G m N G N G G G G G N G ",
"m m k k m m G r ..Z Z D D Z D D D n j n n n n n n j r n n n n n n n n n m n k s r D D D N G N M m m m m m m S M G F M N N M G m ",
"k k k k k m N r ..Z C D j C j D j j j j v j v v j j v v n v v r v v D S M D v s r D D m m m M k m m m k m m M M m m m G N m m m ",
"h h h k h h h 7 ..4 N N g N v C g g g 7 7 g 7 v 7 7 7 7 7 7 7 7 v v v N v g 7 a r N h h h h h h k h h h h h h h n v h h h h 4 h ",
"h 4 h h g h h 7 ..2 g N N v g N g q q 7 g g q 7 q 7 7 7 f 4 7 7 v v g N g r 4 p m h h h h h h h h h N h h h h h v h h h h h 4 h ",
"f g f g g g 3 4 ..4 f 8 8 8 8 8 8 8 4 4 2 8 4 4 4 2 4 4 4 4 4 2 8 8 8 8 8 8 4 Q e f g f g 4 f g f h f h f 2 f f h f 4 h g f 2 2 ",
"< f f f f f , , W 8 , , , < < , < 3 < 5 , 3 < 5 < , , , , < , , , , 8 6 , , , W 7 , , , 4 - , , , , , f , , f f f f f , , , , , ",
", 6 6 6 f 6 - , O 5 , , - # # # , , - - , , , - , , , 2 5 2 - - - , - 5 - - - W 4 - - - - - - - , - - - - - - - - - - f f 6 - - ",
"- 6 6 6 5 6 - - O X - # # - # - - - # - - = - < = = = = = = = - = = = = - # . E , = = - = = - # - # # = = - = - = = 6 = 6 = = = ",
", f g g , , , ) p X X $     - , # # - - - - , - , , , , , , 2 4 2 4 4 3 4 - ] ^ ~ r 7 7 e - , - 4 $ # - # - - , - - - = = - - = ",
"..^ / / / / s s d d / / ^ ^ / ..| | | | } | | } ....| ........................( ( ( ........s ..................................",
"r r r r r r r r r r r r r r r r r r r r r V r  ...9 : r r w w w r r r w r r r w i w w w w r w r r r w r w y d ( ( r r r r r r r ",
"G G G G J J J J J G G G G G G G G r r V V V r r ..t w r w r r 0 H H r r r w H r H H K K H H H H H H H 9 w 1 y ( r r G G r G G G ",
"G G G G G G G G G G G G G G G G G G G r V V r r ..w r H H H H H H H H H r H H H K H H K K H H H H K H H H H > ( r F r G G G J J ",
"G G G G G G G G G G G G G G G G G r G r r V V r ..w H w H H H H H H H H H H H H H H H K H K H H w b w w H H 1 ( r r G G G G J J ",
"G G G G G G G G G G G G V V V G G r G G F G r r ..w H H H H H H H H H K H H H H H H K H H K H H H H w L B H r ( r G G G G J G G ",
"G V G G G G G V G G V F V V V G G G G G H F V r ..r H w H H w L H H H H H H H H H K H H H H H H H w w w w 9 w ( r G G G J G G V ",
"F G G V G V V V V V V V V V V G G G G G H F V 9 u 9 H H w w w K H H H H H H w w H w V w w B H H H w w w 9 w e ( r D F D J F F F ",
"V V V G V G V V V n V V V V V V V V V V V H V + + B H w H H H b b w w H H w w V w w w w w w w w w H K w w w e ( r Z Z Z Z Z B B ",
"v V M V V V V v M V v v v V V V V V V V V V V u d B H H w w b b b L H B H w B w w B 9 w w w B w w w w w B 9 0 / 7 D C N v 8 v x ",
"r v M M V V v v v M v V V V v V V V V V V V m r d w w H H w w w b b w w w w w w w w w w 9 9 w w w H w w 0 j 9  .7 7 S c 8 D r N ",
"r v v v M v v v v v v r v n V v v v V V V V V r d w w B B w w w w w w w w w w w w w 9 w 9 B w w w w w A w w 9  .7 7 N q 8 8 8 g ",
"v r v r r v v v r r r r r v v M v M v v m M m r a 9 w w w w w w w w w w w w A w 9 9 w 9 9 9 9 9 w w 0 w 9 9 0 } 4 N N e 8 4 8 8 ",
"8 8 8 8 r r N v 7 7 e e 7 g r g 8 M r g v r x 7 p 9 9 w q w C r w 0 w w 9 w A w 9 w 0 9 9 0 9 9 9 w 9 0 0 4 = { _ N < 8 4 3 7 8 ",
"7 2 8 5 e 7 7 7 3 = = 3 4 4 4 4 8 8 4 8 e 7 4 = E 9 4 1 3 4 4 4 9 1 9 1 1 1 1 9 9 t 9 1 & 1 1 5 1 1 1 1 3 * * ! 3 z , , , , 5 2 ",
"2 2 < 2 2 2 2 , * * * , , , , 3 3 4 3 , 4 , * , Y & * 1 1 1 2 , ; ; ; ; 1 ; ; ; 1 ; ; ; & & 1 ; ; ; ; ; #   Y Q - , , - # , 2 < ",
"= = < = = = - u i i i       # # # # # # # # $ P P I % % % % # $ % % % % % % % % & L L L L L % ; = ; ; ;     Y Q I - - # # = - - ",
"....] [ } ! Q Q Q W T T R W Q Q ~ [ [ } [ } ] Q [ [ [ } ........................../ ~ ~ ! Q Q Q p { s  ...^ ~ ^ ^ ^ ^ ..~ ......",
"8 e r r r r 3 : r G G G G G D r ..: 3 r r e r r r r r r r r 7 r r r r v r r r r r r r r r r r d d d + 1 r r r r r r r r r e 8 8 ",
"V V M M V V r G G G G G G G G r ..: 3 r G r G G G G G G G G G r N G G G N G G G N n r v v v r d d + ; w r r r r D G G D D G e M ",
"V S V V G V G V G G G G J G G r  .3 r G G G G G G G G G G G G G G G G G G G G G G G G G v v n d d r 0 H G G G G D G G S G D D D ",
"G G G G V G G G G G V G G G G r ..3 r G G G v J G G v G G G G G G G G G G G n G n G G G G G v d  .r G G G G J G V D S S D G D D ",
"G G G V G V G G G V G V G G G r ( r r r G G v G G v G G G G G G G G G G G v v v v G G G G G v / ( r F F G G F B Z S c M M N M N ",
"G G G V G V V V G V G S V V G / ( r r r v G v G v v v v v n n v n v v v v G v G v G G G G G r r / r F Z Z Z Z Z c c M c c M x C ",
"G G G V V V n v v V m S V M G r ( r r G v v n N G v G v v v v v v v n v v G v v v v G v G G N e ~ 0 Z Z Z c Z c c c x x x N N x ",
"D v M V v v V V v V B V V V V e s r r v v v v v v v v v v v v v v v v v v v N G D g g v g D D e Q 7 D N N N x x x 7 8 x N x N N ",
"v v r v M r g v v v M M B B V 7 s r v v r v v v v 7 v r v v r v v v v v r f v v r g r 8 r N N 4 W 7 e 8 g k 8 8 x 8 h x 8 N N z ",
"q q g g q g g r m M M 8 M M M 4 p 7 8 v v r f 7 7 7 7 7 4 N r v r 7 7 r 4 8 7 r e 8 e 8 8 N N = R 4 8 5 h 8 5 7 5 5 4 5 4 5 5 4 ",
"q 4 8 0 q 0 8 0 m x x x x m 4 4 W = 8 r 8 8 r 4 r 4 4 7 4 4 4 4 4 4 7 4 8 7 4 7 5 7 5 5 5 z 3 * Y , 5 2 2 2 , 2 2 2 2 2 , 2 5 2 ",
"4 4 8 8 N 8 8 8 8 6 h x 3 4 4 3 R = 4 7 7 4 4 4 4 3 4 3 3 4 , , 3 , 3 , , 2 2 2 , 2 2 2 , - , - P - $ - - , < 2 l 2 4 - - - - , ",
"* 4 3 3 2 2 3 5 h h < < h 4 3 < T * * , , , , , , , , , $ , , , , - , , , , , 2 4 : = - - # # i L # - - - - < = - = = - - # # # ",
"* $ $ $ & & $ $ .   . $ $ * $ Y U U * * , - : , : , - $ : - - - - - #   # # - = = = = # # # # u u # # $ $ $ $ * # $ $ # # # # # ",
"..} [ [ ] ' ' ' ` ' ' ' ' ' ' _ ] ] ] ] [ ] [ [ [ [ [ ] [ [ ] ] ] ] [ ] ] [ [ ] ] _ _ _ _ _ _ ] ] ] ] ] ] _ ] _ ] ' ] ] ] ] ] _ "
};
