/* XPM */
static char *_542641539571[] = {
/* columns rows colors chars-per-pixel */
"64 64 191 2 ",
"   c #2D1A1A",
".  c #262524",
"X  c #302F2D",
"o  c #343331",
"O  c #441D1D",
"+  c #481F1F",
"@  c #45201D",
"#  c #4B221E",
"$  c #4B2120",
"%  c #552323",
"&  c #5C2424",
"*  c #5F2925",
"=  c #5E2828",
"-  c #523431",
";  c #632626",
":  c #692624",
">  c #622B27",
",  c #6D2926",
"<  c #652928",
"1  c #6C2B2B",
"2  c #722725",
"3  c #7B2724",
"4  c #732B25",
"5  c #7B2B25",
"6  c #732E2C",
"7  c #7A2D2A",
"8  c #6E312C",
"9  c #75322D",
"0  c #7C322C",
"q  c #7E392E",
"w  c #763230",
"e  c #7A3332",
"r  c #723D38",
"t  c #474643",
"y  c #504E4C",
"u  c #53514E",
"i  c #6E6C68",
"p  c #706E6B",
"a  c #74736F",
"s  c #812D26",
"d  c #8A2B26",
"f  c #842D2A",
"g  c #8C2D2A",
"h  c #992C26",
"j  c #942E2A",
"k  c #9C2E2A",
"l  c #83342C",
"z  c #8B362C",
"x  c #85382F",
"c  c #8E392F",
"v  c #9C3826",
"b  c #93332E",
"n  c #9B332D",
"m  c #953C2D",
"M  c #993E2E",
"N  c #843631",
"B  c #8B3432",
"V  c #843B31",
"C  c #8A3A31",
"Z  c #933432",
"A  c #9B3531",
"S  c #913B31",
"D  c #9B3B32",
"F  c #A32E29",
"G  c #A5332D",
"H  c #AC332D",
"J  c #A33D2B",
"K  c #A83E2A",
"L  c #B4332D",
"P  c #BB332D",
"I  c #B4392F",
"U  c #A33532",
"Y  c #AB3632",
"T  c #A33B32",
"R  c #AB3B32",
"E  c #B53731",
"W  c #BD3731",
"Q  c #B43A31",
"!  c #BB3A31",
"~  c #C2352E",
"^  c #CC352E",
"/  c #C5382F",
"(  c #CB382F",
")  c #D4362E",
"_  c #DC372F",
"`  c #D6392F",
"'  c #C43731",
"]  c #C83731",
"[  c #C43A31",
"{  c #CB3A32",
"}  c #D33A31",
"|  c #DC3A31",
" . c #E33A2F",
".. c #E33C31",
"X. c #EA3E31",
"o. c #F43D32",
"O. c #99402F",
"+. c #89433D",
"@. c #9C4332",
"#. c #A5432E",
"$. c #A8452F",
"%. c #A64A2E",
"&. c #B7422F",
"*. c #A44531",
"=. c #AA4631",
"-. c #A84536",
";. c #AB4932",
":. c #B54632",
">. c #BC4632",
",. c #B44932",
"<. c #BA4C32",
"1. c #AB5132",
"2. c #B15032",
"3. c #C9422F",
"4. c #C34532",
"5. c #CB4432",
"6. c #C44B32",
"7. c #CB4932",
"8. c #D34332",
"9. c #DB4231",
"0. c #D14832",
"q. c #D54E3B",
"w. c #DA4D3A",
"e. c #C3563F",
"r. c #C35E3F",
"t. c #D6543B",
"y. c #E44131",
"u. c #EC4233",
"i. c #E54B37",
"p. c #F34234",
"a. c #9A5F59",
"s. c #B0554F",
"d. c #9B635D",
"f. c #A7615B",
"g. c #856C67",
"h. c #966862",
"j. c #87726C",
"k. c #89746E",
"l. c #8C7A74",
"z. c #8E7C76",
"x. c #9A7C76",
"c. c #A6746D",
"v. c #AD7E76",
"b. c #C65946",
"n. c #D05048",
"m. c #D0544B",
"M. c #D35C53",
"N. c #EA5248",
"B. c #E9544A",
"V. c #D5665D",
"C. c #EB675B",
"Z. c #EA695D",
"A. c #C56A61",
"S. c #CD6D64",
"D. c #C87169",
"F. c #E86E63",
"G. c #E57469",
"H. c #E07F72",
"J. c #91827C",
"K. c #B3847C",
"L. c #DC8275",
"P. c #DB887B",
"I. c #958B84",
"U. c #968A84",
"Y. c #97908A",
"T. c #9A948D",
"R. c #9B9790",
"E. c #9B9891",
"W. c #A78F87",
"Q. c #AB8B83",
"!. c #A1938C",
"~. c #B49286",
"^. c #B89E91",
"/. c #B9A38F",
"(. c #B9A495",
"). c #BAA799",
"_. c #BCAB9C",
"`. c #BEB3A4",
"'. c #BFB7A9",
"]. c #BFB9AA",
"[. c #D79184",
"{. c #D49689",
"}. c #D29A8C",
"|. c #CDA396",
" X c #CAA89B",
".X c #CAAA9C",
"XX c #C7AFA2",
"oX c #C8ADA0",
"OX c #C3B3A5",
"+X c #C2B6A8",
"@X c #C0BBAD",
/* pixels */
"E.< f W ' ] ' A { e e e e e e e e N e e N e e B ] e e e e e @X@X@X@Xe e e e e B _ e e e e e e e e e e e e e e e e V N C R { @XE.",
"> > 7 5.9.8.:.:.y.;.D S O.T -.N e e e e B A Y Z } D D S e T R @X@XB n.q.e.e.Z B o.{ E e N Z B N Z B U e e ;.e B >.S B +.T ] < E.",
"< ;.;.:.8.4.;.,.X.! y.,.[ 5.4.>.-.%.;.,.9.8.4.>.| ! | ,.=.} '  XB u.y...4.y.y.:.p.>.5.4.} 4.5.:.y.y.} N ;.;.-.8.8.4.[ B W X.W XX",
"= ;.;.,.5.5.;.,.X.y.y.6.y.| 5.:.;.;.;.6.y.,.;.,.y.| 9.5.5.! { P.B p.8.9.u.9.y.:...>.8.4.p.9.4.-.8.8.:.-.;.-.,.| ,.:.{ Q ' ..f +X",
"= ;.;.;.8.>.S ,.y.4.5.9.! u.} ! D O.*.:.| 5.5.>.9.5.4...! | | F.A y.:.4.y.:.9.,.X.y.>.:...X.8.4.4.5.N *.;.;.,.8.8.5.{ S A } e @X",
"= -.=.;.:.m S S >.;.D ,.D R =.T ;.S +.$.:.,.:.;.;.;.;.:.D D *..XB :.,.,.,.C :.;.5.>.;.;.,.>.>.:.,.>.C -.-.V -.;.:.,.,.*.S } e @X",
"= -.c c m Z c S c C C m S C S S S S S S S ;.=.*.-.-.e C S e S @Xe ;.=.V =.C C ;.;.C C *.C -.C C C -.C C C C C C C C C C D { B `.",
"% *.c c *.c c c c m m C Z m e Z C m C S S C S Z C S e e e e e @Xe ;.-.*.;.C -.C C C ;.C C C C C C C C N V C C N C N N N B B N _.",
"% c z z c C 6 B c 9 C B C 6 w w w B B c ;.c C 7 S C w w e e w ].e -.x $.N N ;.N C C N C C N C N w w w B N N N B N N x l l N 0 I.",
"% z z z z z 6 6 6 6 8 B c c c 6 B 6 B Z w 9 e C w w 6 w 6 6 e ].e *.x x N B N C N N x x -.N x 6 w 6 N 6 x l 0 N l e #.l 0 0 0 I.",
"% 8 z z z x B z 6 8 6 6 z z z c 6 w 6 6 6 6 6 6 w 6 6 = w 6 w '.e D x 6 N 6 N N x B 0 x N f 7 G 6 1 1 6 1 6 1 , 1 7 0 1 0 7 % I.",
"% 9 G n 7 z 1 6 1 6 6 6 6 z 1 6 1 6 6 6 9 U A 1 6 6 6 & % 6 ; L.0 z N 1 8 6 7 6 1 1 0 0 e f 7 ] 1 1 1 1 $ 1 < 1 1 < 6 ; 6 ; k.I.",
"% b ' G n l 6 6 1 1 1 1 x 1 6 1 % % % 1 7 L A 6 1 6 6 6 1 % < Z.6 0 7 1 7 1 1 1 1 1 1 7 7 1 7 _ A d $ $ ; $ $ ; ; ; ; , ; , ; I.",
"% n ) G 7 j F j 7 7 F P F h L ~ g 7 j f : P P k f ' W 6 w % 1 F.f G w f L W 2 1 7 P P < ; ; , ) H F 2 2 k 3 % 3 k d 3 g 5 2 k I.",
"(.x.G ~ j ] H L 3 F P : , s ) c.r ] T R f L j : 3 P k & % % x.n.M._ A U E H k 1 k ^ F 1 < < 7 ) 2 d 3 ^ F L : P E ' n F H L ^ c.",
"T.R.Q.S.D.N.F.|.OXH.G.OX.X.XC.!.W.B.V.K.W.V.K.+X X}.S.!.E.E.g.n.b.D.G.H.P.C.M.E.Q.v.S.OX@X@XXXC.}.H..XN.F.|. XF.C.}.oX[.^ e S.D.",
"e N ' ' B g Y -.D.B Y Y U B ] e e U ' ' E A W U Y ' Y e e ;.;.5.Z B Q T W R Y K.Y ' 5.;.w w B { | >.;.4.[ W E Z W ' W A 4.;.B U ",
";.;.:.B e e B - W.e N e.e.b.,.;.;.;.,.:.,.,.,.:.,.:.;.;.;.;.;.,.;.;.,.C ,.Z N !.B :.:.;.;.;.w :.,.;.;.;.,.,.B ;.,.,.:.e.,.=.=.,.",
";.;.;.;.;.e e e E.e ;.$.$.e.;.;.;.;.;.;.;.;.;.;.;.r.;.;.;.;.;.;.;.;.;.e.;.C e E.w =.;.e.;.;.e ;.;.;.;.;.;.;.;.;.;.;.;.b.b.;.;.;.",
"=.;.=.;.=.-.e e T.e ;.b.e.=.;.;.e.e.;.;.C C ;.;.;.;.;.;.;.;.;.;.;.;.;.;.e.;.C a e ;.;.e.b.;.;.;.;.S ;.;.;.;.;.;.;.;.;.;.;.;.;.;.",
";.O.C O.;.;.w e @X0 =.;.;.C =.;.;.=.;.C C ;.;.;.;.C C C C C C C C C ;.;.;.C e a e ;.;.;.;.;.b.;.;.;.;.S S ;.;.;.;.=.;.;.=.;.;.$.",
"c C S c Z ;.$.w @X$.=.=.V z =.;.-.C C C C C C C C C C C V C C C C C C C C C C a e =.;.;.;.,.;.;.;.-.;.;.;.S %.=.=.=.=.=.=.=.=.;.",
"c c c Z C Z =.9 @X$.$.=.$.;.$.$.%.x N C C C C C C x e C C C N B C V C C C V C p e ;.;.=.:...;.=.O.S S S S S =.*.*.*.*.#.%.-.#.S ",
"c c c c m c =.6 '.$.$.#.x $.x #.x x x x x x x x x x x x C V B e m N =.=.=.#.B p w $.$.C J | c m C S S C m c O.#.C C c #.#.c c c ",
"z z z z z z z 6 `.1 #.#.l #.l #.l l l G W I b c ~ G ' n g H A B Q z m 3.l z Y a.A #.J ' ` ..z z z z z z z z z z c z z z z z 8 z ",
"z 1 z z l z z 6 `.8 0 #.#.l 0 #.l 0 b ( b n / j ..~ E L ] P ~ F ' H (  .z H ^ s.] b ] n R  .b z z z #.z z z z z z z z z z z 1 z ",
"s l l l l z < , `.< 5 0 0 5 0 0 5 0 f _ g G ^ g _ P ~ g ^ ) k f / ` n ( G G  .A.z j _ L ~ ~ P l l s l l l < l d l l , l l l , < ",
"> l 5 s s 5 ; : I.5 < ; ; ; ; < < ; , n G h d f ) P j , f L E L b d 5 b h 6 F M.L j j g 5 5 b 4 > > ; s ; ; s s s s 5 ; ; ; ; ; ",
"; 5 5 5 5 5 * * X 4 * ; & O O O ; * * ; : : ; : ^ 3 < 2 4 5 1 2 ; ; & 6 : & : x.7 1 ; : ; & ; & * & & & & & & & * * * 5 5 5 & & ",
"% 5 5 5 4 5 % & X . & O O & O & & & O & & & & 3 ~ & % % % & % % % % % % % O O J.< % % % 3 3 * O % O O % % & % % % % 4 % 5 % % % ",
"> l l l > * * ~.p . . @     * & O O & & & & & = 2 = ; ; ; < 1 8 1 1 8 1 1 % ).T.Y.6 w E U 4 > = 1 : : & & : ; ; * & & % & & % % ",
"+XR.R.R.R.R.a a a a R.E.T.R.T.].'.'.'.'.+X'.'.}.[. X].].].].].].@X@X@X].].@X@XE.R.R.|.H.|.@Xa @X].P.{..XP.{.+X@X@X].@X@X].@X@X+X",
"e e e B A B A B e N e e e B Z N N N Y Z e -.f oX X8 < S Z N q v E B r q q e C S O.9 O./ m w q e e &.R C I +.g.R.R.N Z B N e e e ",
";.;.>.8.q.w.w.w.n.u.5.,.9.5.8.>.| ..} [ | o.Y ! {.9 ! R ! S D ! 7.<.e q e D w.E 9.7.t.u.u.6.1.1.1.0.9.Q ! J 4.S.A ' 5.8.B ;.;.-.",
";.;.8.y.| 4.6.9.y.9.5.4...y.8.:.9.y.5.| | 9.U W }.C } y.7.2.2.6.0.<.1.1.q 0.6.,.t.0.0.p.t.2.1.1.1.9.6.1.7.u./ V.E ..} 4.,.=.b.e.",
";.;.,.9...8.5.9.>.>.8.>.8.X.9.5.8.U :.' U :.:.Q F.! 9.9.y.7.7.9.y.6.1.1.1.6.9.0.i.6.2.i.<.r.1.1.+.[ { R 7.0.5 V.Y ' X.9.4.,.e.e.",
";.;.;.;.:.>.,.,.;.;.,.;.-.-.-.<.,.e -.,.;.;.e N XXN 1.2.2.2.2.2.2.1.1.r.1.1.1.1.1.1.r.0.2.r.1.1.1.1.O.+.+.%.q R.e ;.:.>.:.e.;.;.",
";.@.;.;.;.;.;.@.;.;.@.@.@.@.@.;.;.;.;.;.;.;.@.e ].e 1.C 1.1.O.+.1.1.1.1.1.1.1.1.1.1.2.6.2.1.1.1.1.x q q 8 q w E.e ;.;.;.e.=.=.@.",
"@.;.;.@.;.@.@.@.@.@.@.@.@.@.@.-.;.;.;.;.;.;.@.0 t 9 1.1.q q q %.1.1.%.1.1.1.V V 1.q q O.O.q 1.1.1.+.q q q 0 r R.e ;.;.=.e.=.=.$.",
"@.@.@.;.@.;.@.@.@.C @.@.@.@.@.@.@.@.@.@.@.;.@.o o +.1.V 1.1.1.O.q +.+.1.1.V x +.+.q q q +.q q +.+.%.%.O.q r 0 R.7 $.$.=.$.$.O.O.",
"B @.@.@.@.@.@.N @.@.N N N @.@.@.@.@.@.@.@.@.@.t a l 1.1.+.q +.x +.O.%.q 1.+.q O.q q 8 V q q q q +.q q q x r w R.w *.#.*.0 0 N m ",
"e N @.@.@.@.N N N @.C @.@.@.N @.@.@.@.@.@.@.@.e a +.q 1.%.+.q +.q q q q q +.q x q q r q q 9 +.q q %.q q q q 8 '.6 6 #.m 0 #.7 #.",
"N N e V @.N N N N N N e V N @.V C N @.4.-.@.@.e a q V V @.x x q q +.q q q q q q q q 9 q 8 q q q q q q %.q q 8 '.8 6 T 0 0 7 0 7 ",
"0 0 0 N 0 N e N e e e e e N N D N @.N ' I @.D e i w q N ! M x q q q q q q q %.0 9 8 q 8 8 8 8 8 q 9 0 q 9 , 8 `.1 J J 0 6 1 0 6 ",
"9 0 0 0 0 0 #.0 6 6 6 8 6 e N 0 l m 7 ^ G H J e s.G m m J c 3.[ 9.K x 0 9 q %.0 8 9 q 1 8 9 8 0 4 q 4 q 9 8 % `./.J 1 6 1 < 6 6 ",
"4 1 4 4 6 6 7 6 1 % % 1 1 1 1 1 7 6 1 ~ | ..n k m.~ L b H f z P v 5 8 > > > 1 > > > > , # > > 4 > > * * > $ $ Y.; v ; ; ; ; 4 4 ",
", : : : , , , ; + $ + ; < < < < < ; : ~ L L F H n.H : 7 P F l P s ; * * > v h 5 3.s d v * @ * * * * * * $   k.I.; & ; & O & , , ",
"% % : % % % % y y u u       O O + O O s : % d h.f.n.L d h h : h : @ @ @ @ * % # 5 d.d.d.g.g.@ & * # * *     k.I.j.& & O O & % & ",
"`.`.`._.`.I.I.I.I.I.l.z.J.J.I.I.Y._._._.`._._.I._.). X_._.`.@X+X+X].+X@X'.@X].@X'.T.T.T.I.I.I.I.i `.p ].'.T.T.E.T.T.T.].T.'.'.'.",
"e e e e e e ; = e =.;.;.;.;.;.e ].= = e e e e e e e e w e e e e e w e e e 9 e e e w w e e e w a a a o * e w e e e w e e w e e w ",
"@.@.@.@.@.@.e ;.=.;.;.;.;.;.;.e @X< < w ;.e ;.;.;.;.;.;.;.;.;.e ;.;.;.;.=.;.;.;.-.N e N B N w a a o > q e e e e =.;.;.;.=.;.w D ",
"@.@.@.@.;.@.;.@.;.;.;.;.b.;.;.w @X= w ;.;.;.;.;.;.;.;.;.;.;.;.;.;.;.;.;.;.;.;.;.;.;.;.;.N N C a a q w %.;.;.;.;.=.;.;.@.;.;.=.=.",
";.;.;.;.@.;.;.;.;.;.@.;.=.;.;.e ].< B 4.,.;.N e.;.;.N ;.;.;.-.;.;.;.;.;.;.;.N ;.C ;.;.;.;.;.N a ].e ;.;.;.;.e.=.@.;.=.;.=.=.#.$.",
";.;.;.@.;.@.;.;.;.@.;.@.;.;.;.e E.e B ! ,.;.N ;.;.N ;.;.;.;.;.;.;.;.;.;.;.N N N N ;.;.;.;.;.N E.E.e %.=.;.;.=.@.$.$.O.O.m =.m $.",
";.;.;.@.;.@.@.@.;.@.;.@.@.@.;.E.E.e Z } ' >.B ;.N N N N N N N C N B N N B ;.N ;.N ;.;.;.=.=.e e E.w =.=.-.%.$.=.m O.M m M m M #.",
";.;.;.@.@.@.V C C @.@.@.@.@.;.w R.e N y.[ ] D 5.7.Y ,.C C N R D C ! } D S 9.} | U Q 4.T ,.=.=.9 Y.9 =.#.#.O.#.m M m m m m J #.m ",
"-.N @.@.N N @.@.N @.@.@.D @.@.9 p e B ] A W ! [ ] ] U W ' A A ' W E ! Q Z W 5.4.8.~ ] W b #.$.6 I.6 #.#.*.J m m m 0 0 m J m #.J ",
"0 N N N D 0 l N N e @.@.O.@.D 6 p w Z ~ { Q U _ ( Z b ] X.X.} } [ E } | n Q H z U | / c 0 #.J 6 I.1 0 9 7 m 7 4 m 6 m z 4 v J v ",
"0 V 0 0 0 0 0 0 m @.m 0 @.D m 9 p 1 z ' ~ b l Z W [ Y n A Q j B N E G G n L G 0 0 G ~ ] G J J % z.1 6 5 z 6 6 6 4 4 6 4 4 4 4 6 ",
"0 1 9 0 0 0 0 0 m m m m m m 1 1 U.% 0 l 0 0 0 1 l 6 6 6 6 1 1 1 1 6 7 1 6 7 1 6 4 6 4 7 6 J < + l.; , , 4 , ; , , , , , * 1 4 < ",
"1 1 7 6 J 6 4 9 4 7 z m > 1 1 < J.% 1 6 6 1 1 1 1 1 < 1 1 < ; < < < < ; ; 4 1 , ; , , , ; & = ; k.& O & = & : : v : , & & & & ; ",
"$ ; < , 1 < 1 4 m z : , z , 1 < l.+ $ ; < ; ; < ; ; ; ; + ; ; ; = ; & & ; & & : : = & & & O O y g.O & & & & : & & & & % & O O O ",
"$ $ $ + # $ # #       + # + O k.k.k.+ + & ; ; = & & & O = & & = & % O   O O & & % % % O O O O y y O O + + + + + O + + + +   O O ",
"`.`._._.).(.(./.(.(.(.(.(.(.(.(.).).).)._._._._._._._._._._.).).).)._._._._._._.).(.^.^.^.^.^.(.)._.).(.(.).(.(.(.(.(.)..X_.(.(."
};
