/* XPM */
static char *_542646257839[] = {
/* columns rows colors chars-per-pixel */
"64 64 231 2 ",
"   c #000200",
".  c #040904",
"X  c #070D08",
"o  c #0B0D0A",
"O  c #011601",
"+  c #021D01",
"@  c #0E120D",
"#  c #11100F",
"$  c #121412",
"%  c #151914",
"&  c #191817",
"*  c #1C1D1B",
"=  c #2B1C1C",
"-  c #3C1D19",
";  c #032402",
":  c #052C04",
">  c #092807",
",  c #0B260A",
"<  c #0B2C0A",
"1  c #102B0F",
"2  c #053304",
"3  c #093407",
"4  c #053B03",
"5  c #093A07",
"6  c #0C340B",
"7  c #0E3C0C",
"8  c #103B0F",
"9  c #172717",
"0  c #133D12",
"q  c #193718",
"w  c #20211F",
"e  c #232423",
"r  c #2A2526",
"t  c #252A25",
"y  c #2C2C2C",
"u  c #382D2C",
"i  c #283528",
"p  c #2C3D2C",
"a  c #30302F",
"s  c #312E31",
"d  c #343434",
"f  c #383835",
"g  c #3C3C3B",
"h  c #441D1D",
"j  c #481F1F",
"k  c #4B2020",
"l  c #4B2C2B",
"z  c #542323",
"x  c #5C2424",
"c  c #552A2A",
"v  c #5E2929",
"b  c #4D3332",
"n  c #433939",
"m  c #583737",
"M  c #622626",
"N  c #682723",
"B  c #6D2925",
"V  c #642929",
"C  c #6C2B2B",
"Z  c #7B2C24",
"A  c #762D28",
"S  c #742D2A",
"D  c #6B332D",
"F  c #75372F",
"G  c #7C322D",
"H  c #663937",
"J  c #7A3232",
"K  c #753835",
"L  c #064105",
"P  c #0E420D",
"I  c #0E4B0D",
"U  c #10440F",
"Y  c #104A0F",
"T  c #0F550E",
"R  c #10530E",
"E  c #124510",
"W  c #124C11",
"Q  c #1A4319",
"!  c #1B4B1A",
"~  c #145413",
"^  c #165B14",
"/  c #1A5819",
"(  c #20441F",
")  c #20551F",
"_  c #0E620C",
"`  c #166214",
"'  c #186517",
"]  c #196917",
"[  c #196818",
"{  c #1A6C19",
"}  c #1C741A",
"|  c #1B7919",
" . c #207C1F",
".. c #294628",
"X. c #2C432C",
"o. c #275A26",
"O. c #30532F",
"+. c #334233",
"@. c #3C453C",
"#. c #384C38",
"$. c #385537",
"%. c #296628",
"&. c #267925",
"*. c #386938",
"=. c #367E35",
"-. c #5B423C",
";. c #40533F",
":. c #75403C",
">. c #433644",
",. c #423F42",
"<. c #444444",
"1. c #444A44",
"2. c #494748",
"3. c #4C4B4B",
"4. c #564846",
"5. c #514E4D",
"6. c #475547",
"7. c #4C5C4C",
"8. c #51514F",
"9. c #514E51",
"0. c #545353",
"q. c #595656",
"w. c #545B54",
"e. c #595659",
"r. c #5C5B5B",
"t. c #774E4C",
"y. c #675B59",
"u. c #476547",
"i. c #4B734B",
"p. c #546554",
"a. c #576B57",
"s. c #5D645D",
"d. c #6E605E",
"f. c #625E62",
"g. c #646363",
"h. c #686666",
"j. c #666966",
"k. c #696669",
"l. c #6A6868",
"z. c #6C6B6B",
"x. c #756C6A",
"c. c #6A756A",
"v. c #75736D",
"b. c #716E71",
"n. c #737373",
"m. c #7A7776",
"M. c #757A75",
"N. c #797679",
"B. c #7C7C7C",
"V. c #802F27",
"C. c #84342C",
"Z. c #8B362C",
"A. c #8D392F",
"S. c #9A3625",
"D. c #953C2D",
"F. c #993E2E",
"G. c #833631",
"H. c #853932",
"J. c #8A3B32",
"K. c #823E39",
"L. c #913C31",
"P. c #A23D2A",
"I. c #9A402E",
"U. c #894438",
"Y. c #9B4232",
"T. c #934738",
"R. c #A6422E",
"E. c #A8452F",
"W. c #A54631",
"Q. c #A94731",
"!. c #A64933",
"~. c #AB4932",
"^. c #A74E39",
"/. c #A3513E",
"(. c #C3563F",
"). c #8C534D",
"_. c #96564B",
"`. c #AD5744",
"'. c #8D625A",
"]. c #AA6454",
"[. c #886B67",
"{. c #88726D",
"}. c #96716B",
"|. c #96746F",
" X c #897B78",
".X c #AC756A",
"XX c #C35E49",
"oX c #1E841C",
"OX c #20831E",
"+X c #268524",
"@X c #299427",
"#X c #3D873C",
"$X c #329731",
"%X c #5D935C",
"&X c #7E817E",
"*X c #7C8C7C",
"=X c #80817F",
"-X c #97837D",
";X c #B1847B",
":X c #807E80",
">X c #838383",
",X c #878984",
"<X c #888588",
"1X c #8C8B8B",
"2X c #928987",
"3X c #948B84",
"4X c #94968C",
"5X c #918F91",
"6X c #949393",
"7X c #989693",
"8X c #9B9891",
"9X c #9B9B9B",
"0X c #AD9891",
"qX c #89A889",
"wX c #A7A49B",
"eX c #B9A495",
"rX c #B7A598",
"tX c #BBAB9D",
"yX c #A39CA3",
"uX c #A4A4A4",
"iX c #ADA6A7",
"pX c #ABABAB",
"aX c #BDB3A4",
"sX c #BDB7AA",
"dX c #B2B2B2",
"fX c #BBBABB",
"gX c #C0BBAD",
"hX c #C0BDBD",
"jX c #CAC1BA",
"kX c #C6C4C4",
"lX c #DBD8D8",
/* pixels */
"8Xv V J J J J J J J J G.J G.J J G.G.J J J J G J J J J J K J sXuXwXaXJ J J J J J J J J J J J J J J J J J J J J J G.J K.H.J.H.gX7X",
"V v v ~.~.~.~.~.~.~.L.L.L.L.L.J J J J J J G.J J J L.L._.t.0XpXn.f.n.}..XXX(.J J J G.J J J J J J J J J J J ~.J H.~.J.J.J.J J V 7X",
"V ~.~.~.~.~.~.~.~.L.~.~.L.!.~.!.~.~.~.~.~.~.~.`._.-X5Xb.y.j.g.2.y g 9.B.yX7X'._.`.~.~.W.~.Q.Q.~.~.~.!.J ~.~.Q.!.!.W.J.J J J V fX",
"v ~.~.~.~.~.~.~.~.~.~.~.~.L.~.~.~.~.~.~.`.}.v.l.b.<Xh.g d y 3.r.<.y a f y.M.z.j.l.[.}.`.(.Q.~.!.Q.W.~.Q.~.~.!.J.~.!.K.J.J.J M gX",
"v ~.~.Q.~.Q.L.Q.~.~.~.~.L.~.L.L.T.T.'.x.6X9Xb.0.<.g 3.e.n.z.s.p +.w.b.r.9.0.8.8.e.j.6X9X-X_.^.!.~.!.G.!.~.~.!.~.Q.!.J.J.H.J J sX",
"v E.Q.~.W.D.L.L.~.~.L.Q.L.L.L._.|.1Xz.z.b.n.0.d ,.l.1Xc.6.q : : 3 < ..a.>X1Xb.g g <.b.6X9XB.x.'./.Q.J.!.Q.J.Q.W.!.W.!.Q.H.J J sX",
"x W.A.J.J.J.D.J.A.L.D.A.A.).d.1X1X1Xg.0.1.j.b.g.s.$.q : 4 7 P E E E 5 2 P i u.h.f.2.2.n. XB.g.j.>X;XU.G.J.H.J.J.J.G.J.G.G.Q.J.aX",
"x W.A.A.E.D.A.A.A.A.A.L.[.n.B.B.k.r.2.2.e.g.6.( 6 4 I E I U W W W ~ W ~ R 3 L 7 X.7.s.>Xn.b.e.f.b.6X5X'.G.J.G.J.G.J.G.J.G.G.G.tX",
"x A.Z.J.A.Z.S J.A.S _.iXdX:Xn.f.3.w.r.1.$.^ 4 7 W W W W W W ~ ~ ~ ~ P ^ U W ^ ~ P 3 8 f s.b.2.9.r.B.pXpX{.).H.G.G.G.C.C.G.C.J 3X",
"z Z.Z.Z.Z.J.S S J K 3.5XlX:Xg.3.e.s.p 7 _ @XW W W ~ W W W ~ ~ ~ / W ~ } 7 ^ ^ ~ I W P : > ;.e.1.0.r.dXlXf.5.K.G.C.C.R.C.G G C.3X",
"z C Z.Z.Z.G.Z.Z.C H s o b.uXw.2.f.<X! _ OX~ 7 Y W W W I W W / ~ W ~ oX~ W ^ ` W I W 7 6 2 #.1X3.<.q.fXg # f C C C G G C G G k 3X",
"z S C.S C Z.S C C C 4.d @ :Xj.,.1.5Xo.] OX7 7 U E E W W W ~ W W ^  .[ W ^ ` ^ P U W U 7 4 7.9X3.g B.g.X <.m C V V V S V A V {.3X",
"z C C C C.Z.C S C C C m B 8.s.n d B.%.{  .7 6 7 7 P E Y W W ^ } | T 5 I R W 7 P P 7 7 ~ 4 u.1X9.<.j.n - b k k M M M M M M B M 3X",
"z C C G.C C C t.D C z z z l <.g s f.%.} | W 7 Y Y W ~ ~ { } ] W ..@.a.p.O.! P 7 6 7 ^ ' _ 7.n.0.n 8.m k x j j V y.x x x M x j 3X",
"eX XC C C c y.hXwXv z z z b <.f a r.%.oX .} W W ~ ^ ^ ^ I 0 @.N.1XdXkXfXuXuXc./ I ~ ] oX| ;.z.e.3.2.u z z z 4.lX8X4.C C N z z  X",
"8X8X8X8X7Xj.dX7Xn.n.v.v.z.b.0.f d g.! | @X| } ` R 3 < 1 1.<X6XuX7XdXpXfXkXdXpXc.#X` | +X| o.b.j.r.q.N.v.v.v.m.N.<X1X,XgXd d 8X8X",
"J J J K 5.g.7X:Xr.<.2.,.<.0.r.<.g w.` ` } +XoXT O.s.:X>XuXpXuX1Xb.g.a.c.M.&XpX9Xn.&.{ } | ! z.b.k.1.<.g 3.g.9.2.z.>Xn.y.^.!.J J ",
"~.~.].l.l.h.b.0.g.3.w y 3.z.z.g.,.O.| | ^ ^ W w.5X6XuXfXdXuXg.,.*.+X+X$X#Xp.b.1X:Xp.OXR ^ I @.z.B.8.d f 3.s.g.<.8.z.5Xn.[.`.~.~.",
"~._.m.7XN.q.0.j.l.s.<.<.e.<X<Xz.t ~ | | { W <.1X9XdXdX9X6Xe.#.$X ./ W W OX$Xa.<XpXN.=.^ ` ` 6 g  XB.q.2.e.n.z.9.2.0.&XuX>Xy.F ~.",
"^. XuXiXj.<.g B.N.f p @.;.#.+.! ~ W ^ ] ^ p B.1XuXdXdX1Xk.7.@X~ 7 7 7 W 1 [ #Xf.:X:Xa.[ ' ^ W < q +.;.;.@.i 2.z.<.2.j.5XdX&X4.~.",
"~.jX9XB.g.d s b.z.+ ; 3 : 2 T ] } ^ W W , 3.B.1X9X9X1XN.f.6.OXP ~ E ~ W P 6 &.w.1X:Xs.%.~ ~ 8 6 3 : ; ; ; + 1 B.3.g 2.>X5XuX;XR.",
"L._.g.2.j.g y z.p.+ 1 1 0 0 U / [ ' ^ U ,.z.n.1X1XB.b.M.>.*.} P E ^ { [ ^ 7 %.s.:XB.r.o.7 P P E E 6 , 6 < < + &Xr.a d r.2.{.!.Q.",
"A.L.J.d r.<.s b.7.; 1 < E W W E E W P +.z.b.z.g.s w <.2.$. .P W [ ] { { ' P %.7.&X6X8.o.Y Y U Y U 6 6 6 < , + M.>Xy y d n Y.Q.A.",
"A.A.A.b j.r.s M.7.; 0 6 8 W ^ ^ ~ W ..g.n.z.g.2.s g ;.%.} W ` { { { ` ^ ~ I *.g.1X6X0./ W W Y Y 7 6 7 6 < , + N.1Xd g 1.F D.A.A.",
"Z.Z.Z.D b.N.f b.w.; 0 7 6 E ~ ^ ^ ~ @.f.k.e.3.#.o.{ { ` ^ { { { ] ^ ~ Y 3 ' p.6X1X:X2.~ E W U P P 7 5 6 < , ; M.:X3.r.r.G Z.C A.",
"Z.C Z.K.B.n.2.h.s.; 0 E E 7 0 ~ / U q +.<.O./ ~ W W ~ / ' { [ ^ W R ^ W W i.k.9XB.n...~ P U U Y E 7 7 6 < < , B.B.k.g.{.C.Z.C Z.",
"C.C.C.G.:XN.<.9.z.; 6 E W E E 7 7 P P P W W W W ~ ^ ^ ^ ^ ~ W W ~ ^ ~ P *.j.6X X1X<.) I P Y Y U I P 7 6 6 : 9 >Xg.z.B.-XC.C.C V ",
"N V.V.V. XM.3.f n.1 , < E E P 6 Y I 7 7 P 7 U W Y U E W E W ~ ^ ^ W Y *.z.<X9X1Xf.X./ 7 W Y Y Y Y E 7 6 < + p B.0.z.uX XM V M M ",
"x Z Z Z }.6X0.d j.X.: < 6 E 6 U Y P P U P P U P P E ~ ~ ^ ^ ~ ~ P ~ *.N.uXuX9Xj.g %.7 U W W W Y Y P < > < + 7.f.g. XkX_.Z Z x x ",
"x Z Z Z G.hXg.g 8.s.2 7 7 6 6 E W W W Y ~ ~ ~ ~ ^ ^ ^ ^ / ~ I I o.a.1X1X9X>Xg.f %.E 7 I I W Y U 7 6 < 7 5 < c.<.g.6XkXz Z z x z ",
"M V.Z.C.V gX:X<.g B.0 7 E E 7 6 7 P 8 W W ~ ~ ~ ~ ~ W W 7 3 ! u.M.<X<X9X<Xr.g %.W < 7 7 P I 7 7 < 7 I W 4 O.b.<.q.pX3Xx x z z x ",
"sX8X8X8X7XdXiXf.@.b.7.: E E W E 7 8 6 6 7 0 7 0 0 7 3 6 ..u.j.b.N.1X&Xb.e.g %.Q 6 U P 7 7 6 7 6 < 7 ~ ^ 4 M.f.0.r.kXjXgXgXgXgXaX",
"J J J J J F iXN.3.3.>X> 0 E W W ~ W W E Y U U P P Q #.p.z.&Xb.:XM.j.s.2.#.%.7 3 W W P 7 7 7 7 P < U ~ I ( 1X9.3.M.iXJ J J J J J ",
"~.~.~.~.(.XX;XB.g.d B.O.6 P W W W ~ W Y W I P ( ;.e.b.z.k.N.r.r.r.,.g O./ < 7 P U W 7 W ~ 7 7 3 E W W 4 a.N.r.8.:X'.~.~.J ~.~.~.",
"~.~.~.~.Q.Q.`.<Xb.e.f.a.4 W P E W Y W Y P q @.r.z.f.j.N.j.0.0.<.,.+.o.0 < 7 P P P 7 P { ^ ~ ~ ~ ~ E W 7 &Xz.B.z. X^.G.~.~.E.XX(.",
"~.~.~.~.~.~.~. X&XN.r.l.6 ~ ~ W 7 P 5 6 +.e.r.r.j.b.b.z.r.<.<.g ..Q , , 6 6 6 6 P W ^ / ` ` ^ ^ ~ ~ P ( >X:X5XB.h.J Q.Q.~.E.(.(.",
"~.~.~.~.~.~.~.}.>X<Xj.l.q 2 P E ~ L ( 9.e.r.g.j.b.M.r.0.9.@.+.Q < , , P W Y W ~ ~ I T ^ ~ ^ ' ` ~ U 2 $.N.1X6XB.).~.~.~.~.(.~.~.",
"~.Q.~.~.~.~.~.'.&X6XN.j.p P ~ ~ P X.9.9.w.0.r.f.g.0.,.@.d 9 , ; < , 6 ` I U I ` } +X+X&. .` ~ 7 8 7 5 1.b.5X9Xn.t.~.~.~.(.~.~.F.",
"Y.~.~.Y.~.Y.T.'.>X1X>Xj.X.T ~ U p 9.3.0.0.3.r.r.3.g +.i , O + , , 6 ^ P Y [ #X%XqX*X6X&Xa.#X#X{ E 8 6 ;.j.:X6Xz.K Q.~.~.(.Q.~.~.",
"W.Y.Y.~.Y.!.Y.'.>XN.N.g.X.T ^ Q 9.0.r.0.e.0.0.,.p ..1 6 8 E U Y ~ ~ 7 ! i.qXyXpXyX5XM.:Xb.:Xb.*.&.W 3 1.f.g.1Xn.K W.P.Q.Q.Q.F.F.",
"G.Y.Y.Y.Y.Y.Y.{.1Xz.B.n.i L 6 ,.9.3.r.0.3.2.g i ( < < P ^ W ~ W 7 E *.a.<X5X1X&X&X>Xz.M.B.z.j.0.6.&.3 @.f.0.B.1X).L.W.P.J C.G L.",
"J G.Y.Y.t.y u iXB.l.<X>Xq 3 t ,.,.f.s.,.<.g i ) < U W 6 7 Y U 7 ! $.g.N.n.z.<Xz.f.9.9.0.0.9.w.f.9.$.Y +.j.3.s.5X5X& g T.V.W.G R.",
"C.G.G.).g y dX6Xs.B.6Xb.< 6 s 2.<.r.,.1.g t ) 0 < 6 E W U 6 6 ) 6.z.k.B.n.9.g.e.2.@.d d g @.2.8.2.g ! t b.e.0.z.hX:Xw 4.G G G G ",
"G J G K 0.k.1Xh.r.1X9Xw.O % g <.r.s.<.,.d t ) < 7 6 6 7 6 E %.0.k.b.n.g.w.1.2.1.d t w w e d d ,.3.f p @ z.j.q.g.yX6Xe.q.S C A A ",
"S G G G l j.=Xj.w.>X>Xe o , d g 9.1.g 2.s t } , < 7 6 < Y %.3.k.g.3.0.g f s y t % X X @ w y d g g s i   ,.k.r.g.yX<Xd z C C S S ",
"S B S S S y.n.r.b.n.N.9 X % s ,.9.9.<.@.d t &.` < > 7 { %.<.g.z.3.2.z.1X6X1Xb.g X . X @ t d g d s t 9   g r.j.n.>Xw.b N M M B B ",
"N N N B B D g.2.b.B.5X>XX @ s ,.0.s.9.<.f s ..&.OX&.&.$.9.r.r.g n.dXfXkXdXfXpX>X0.* o * s f d s t t   y 5Xg.<Xg.w.2.M x h x B B ",
"x z N z z z H 2.3.n.1X5Xj.. t f 3.e.e.<.f d s s X.+.f ,.e.e.d c.uX9X6X9XB.j.s.r.0.1.* * s d y e 9 @ @ >X>XB.M.,.<.V x h h x x x ",
"aXaXaXtXaX2X3Xf.f 0.>X9X1X8.$ d g 2.9.2.g d d y y s <.0.0.d 3.>XM.g.0.<.@.d d g d s y $ y r * * # o b.<XuX1X2.f n.4X8XgX3XgXgXgX",
"J J J J J J M V u d 9.uX9X<Xe.9 s g 1.2.,.f s d f s <.1.f y 3.9.2.3.d s s d d s s w w $ % * 9 @ # z.g.6XpXB.f b J J J J J J G S ",
"Y.Y.Y.Y.Y.Y.J ~.~.n y g.7X5X>Xr.t y s g f d t ,.2.y g d y e >.d ,.g e o X e a s i w * $ $ * o * k.g.g.B.B.0.m J ~.~.~.~.Q.~.J F.",
"Y.Y.Y.Y.!.W.~.Y.~.!.u f g.6X9Xb.j.s * r y y * s 3.e y y * * s y d s w X   o s d s e * $ $ X i n.N.n.j.0.0.-.^.~.~.~.~.Y.~.~.Q.Q.",
"~.~.~.~.Y.~.~.~.~.~.U.u <.g.6X:Xj.z.g % * w & * r.t % * $ $ y e r y y * $ $ d d d e * . @ 2.b.>XuXz.f a -.~.(.~.Y.Q.Q.Q.E.Q.E.E.",
"~.~.~.Y.~.Y.~.!.~.I.Q.U.-.<.r.n.z.j.g.9.e o o # ,.r.$ @ $ o e w w e r w % y ,.g s * @ y q.r.j.5Xn.1.y H W.~.W.I.Q.Q.F.F.F.R.F.E.",
"~.~.~.Y.~.Y.Y.Y.~.I.~.Y.Y.t.<.3.0.j.n.>Xf.,.%   $ 0.e.*     # * * w w * y 1.<.y % y 2.j.n.g.q.r.2.f K Q.~.E.E.E.F.F.D.F.F.F.F.P.",
"~.~.~.Q.Y.Y.J.H.H.Y.Y.Y.I.T.U.2.d g g.9X1Xb.g.1.$ $ ,.f.2.e o # & * e g <.d e a 0.f.j.5X6X3.y @.0.H E.E.E.F.E.F.F.L.F.D.F.P.P.D.",
"~.G.Y.Y.H.H.Y.Y.H.I.Y.Y.Y.Y.Y.K 2.y t q.<X9X>Xz.b.w.d a 2.w.0.3.3.2.@.s s @.h.>Xn.l.N.B.q.g a b 2XS ~.P.P.P.D.D.D.G Z D.P.D.P.P.",
"C.G.J G.I.J C.H.G H.I.I.I.I.F.D x.m a y 3.n.7XN.n.n.:Xb.e.<.d s s d ,.g.B.&X6XuX Xg.,.1.2.4.A.C :XC G A G D.S S A.A A.Z.A P.P.P.",
"G J G G G G G G I.F.F.G F.F.L.J h.S G l n 3.j.z.&X>X1X1X>X6X1Xg.n.6X6X>Xg.N.9X9Xh.d y n m R.P.z |.J S S D.S S A A A A S A C A B ",
"G S G G G G G G D.D.D.A.D.D.C C 3Xz G G F m 2.,.g r.M.uX9X<Xn.<X<X9X9X9Xj.k.r.r.2.f b C S S.V k  XV S B B B M B B B B B x B A B ",
"C C A A R.A A A A A S.A.C C C V -Xz V S S C V l t e y q.b.1XB.z.k.1X<Xn.g y y n c N B B M M x M [.x h x x x B N S.N B x x x M x ",
"k V V C N V V A A.Z.N B Z.N C V  Xz k V V V V M x c u s f @.<.f d f ,.d d l c C N x x x x h h 5.[.h x x x x N x x x x x x h h h ",
"k k k k k k j j = - = j k j h {.{.{.k j M x M M x x x h m l a y e r l y h h x z M x z h h h h 5.5.h h j k j j j h j j h h h h h ",
"aXaXtXtXeXeXeXeXeXeXeXeXeXeXeXeXeXtXrXrXtXtXaXtXtXtXtXaXtXtXeX3X-X0XrXtXtXtXtXtXeXeX0XeXeX0XeXrXtXtXrXeXrXrXrXeXeXeXeXeXtXtXeXeX"
};
